<svg xmlns="http://www.w3.org/2000/svg" xmlns:xlink="http://www.w3.org/1999/xlink" width="512" height="512" viewBox="0 0 512 512">
  <defs>
    <clipPath id="clip-RINIYA_LOGO">
      <rect width="512" height="512"/>
    </clipPath>
  </defs>
  <g id="RINIYA_LOGO" clip-path="url(#clip-RINIYA_LOGO)">
    <path id="Ligne_2" data-name="Ligne 2" d="M0,202a19.936,19.936,0,0,1-14.063-5.78,20,20,0,0,1-.156-28.284l180-182a20,20,0,0,1,28.284-.156,20,20,0,0,1,.156,28.284l-180,182A19.939,19.939,0,0,1,0,202Z" transform="translate(116.5 122.5)" fill="#db5363"/>
    <path id="Ligne_3" data-name="Ligne 3" d="M152.007,191a19.95,19.95,0,0,1-14.955-6.713l-152-171a20,20,0,0,1,1.661-28.235,20,20,0,0,1,28.235,1.661l152,171A20,20,0,0,1,152.007,191Z" transform="translate(218.5 122.5)" fill="#db5363"/>
    <path id="Ligne_4" data-name="Ligne 4" d="M0,183a19.937,19.937,0,0,1-14.1-5.814,20,20,0,0,1-.087-28.284l162-163a20,20,0,0,1,28.284-.087,20,20,0,0,1,.087,28.284l-162,163A19.938,19.938,0,0,1,0,183Z" transform="translate(206.5 212.5)" fill="#db5363"/>
    <path id="Ligne_5" data-name="Ligne 5" d="M76,100a19.942,19.942,0,0,1-14.5-6.225l-76-80A20,20,0,0,1-13.775-14.5a20,20,0,0,1,28.275.725l76,80A20,20,0,0,1,76,100Z" transform="translate(212.5 293.5)" fill="#db5363"/>
  </g>
</svg>
